<svg width="183" height="29" viewBox="0 0 183 29" fill="none" xmlns="http://www.w3.org/2000/svg">
<path d="M168.478 28.4518C166.838 28.4518 165.448 28.0353 164.308 27.2022C163.177 26.3604 162.375 25.1633 161.901 23.6112C161.436 22.0503 161.384 20.178 161.743 17.9945C162.112 15.8109 162.791 13.9431 163.782 12.3909C164.773 10.8388 165.974 9.65053 167.386 8.82622C168.798 8.00191 170.32 7.58976 171.951 7.58976C173.205 7.58976 174.178 7.80022 174.871 8.22114C175.572 8.6333 176.09 9.11561 176.423 9.66807C176.756 10.2205 177.006 10.7072 177.173 11.1282H177.396L179.067 1.11804H183L178.528 28.0572H174.687L175.226 24.9134H174.897C174.59 25.3431 174.165 25.8342 173.621 26.3867C173.086 26.9391 172.402 27.4214 171.569 27.8336C170.736 28.2457 169.706 28.4518 168.478 28.4518ZM169.807 25.0976C170.938 25.0976 171.951 24.7994 172.845 24.2031C173.748 23.598 174.498 22.7606 175.094 21.6907C175.7 20.6209 176.12 19.3756 176.357 17.955C176.594 16.5519 176.59 15.3242 176.344 14.2719C176.099 13.2196 175.625 12.3997 174.923 11.8122C174.222 11.2246 173.297 10.9308 172.148 10.9308C170.964 10.9308 169.934 11.2378 169.057 11.8516C168.18 12.4655 167.461 13.3029 166.9 14.364C166.347 15.4251 165.961 16.6221 165.742 17.955C165.514 19.3055 165.505 20.52 165.716 21.5986C165.926 22.6773 166.369 23.5323 167.044 24.1637C167.72 24.7863 168.64 25.0976 169.807 25.0976Z" fill="black"/>
<path d="M146.204 16.0609L144.231 28.0572H140.298L143.665 7.85286H147.44L146.888 11.1413H147.138C147.778 10.0627 148.651 9.20333 149.755 8.56317C150.869 7.91424 152.185 7.58978 153.702 7.58978C155.07 7.58978 156.218 7.87917 157.148 8.45794C158.086 9.02794 158.748 9.87856 159.134 11.0098C159.529 12.141 159.59 13.5397 159.318 15.2059L157.161 28.0572H153.228L155.293 15.6794C155.53 14.215 155.337 13.0706 154.715 12.2463C154.101 11.4132 153.123 10.9966 151.781 10.9966C150.869 10.9966 150.023 11.1939 149.242 11.5886C148.471 11.9832 147.817 12.562 147.283 13.3249C146.756 14.079 146.397 14.991 146.204 16.0609Z" fill="black"/>
<path d="M132.542 28.0572L135.91 7.85287H139.843L136.475 28.0572H132.542ZM138.698 4.69594C138.014 4.69594 137.435 4.46794 136.962 4.01194C136.497 3.54717 136.282 2.9947 136.317 2.35455C136.352 1.70562 136.624 1.15316 137.133 0.697157C137.642 0.232386 138.233 0 138.909 0C139.593 0 140.167 0.232386 140.632 0.697157C141.097 1.15316 141.316 1.70562 141.29 2.35455C141.254 2.9947 140.983 3.54717 140.474 4.01194C139.974 4.46794 139.382 4.69594 138.698 4.69594Z" fill="black"/>
<path d="M101.3 28.0572L104.668 7.85286H108.443L107.89 11.1413H108.14C108.754 10.0276 109.587 9.15948 110.64 8.53686C111.701 7.90548 112.902 7.58978 114.244 7.58978C115.577 7.58978 116.651 7.90548 117.466 8.53686C118.291 9.16825 118.83 10.0364 119.084 11.1413H119.295C119.944 10.0539 120.851 9.19017 122.018 8.55001C123.184 7.90986 124.495 7.58978 125.951 7.58978C127.766 7.58978 129.16 8.16855 130.134 9.3261C131.116 10.4749 131.414 12.2024 131.028 14.5087L128.766 28.0572H124.819L127.029 14.877C127.249 13.5003 127.038 12.5093 126.398 11.9043C125.758 11.2904 124.92 10.9835 123.886 10.9835C122.605 10.9835 121.544 11.3781 120.702 12.1673C119.86 12.9478 119.343 13.9519 119.15 15.1796L116.98 28.0572H113.073L115.322 14.6271C115.498 13.5222 115.296 12.6409 114.717 11.9832C114.147 11.3167 113.314 10.9835 112.218 10.9835C111.473 10.9835 110.749 11.1808 110.048 11.5754C109.355 11.97 108.763 12.5137 108.272 13.2065C107.781 13.8993 107.461 14.6973 107.312 15.6005L105.233 28.0572H101.3Z" fill="black"/>
<path d="M88.8882 28.0572V7.85283H94.3207V11.3781H94.5312C94.8995 10.1241 95.5177 9.17699 96.3859 8.53683C97.2541 7.88791 98.2537 7.56345 99.385 7.56345C99.6656 7.56345 99.9681 7.58098 100.293 7.61606C100.617 7.65114 100.902 7.69937 101.148 7.76075V12.7329C100.885 12.654 100.521 12.5838 100.056 12.5225C99.5911 12.4611 99.1657 12.4304 98.7799 12.4304C97.9556 12.4304 97.219 12.6102 96.5701 12.9697C95.9299 13.3205 95.4213 13.8115 95.0442 14.4429C94.6759 15.0743 94.4917 15.8022 94.4917 16.6265V28.0572H88.8882Z" fill="black"/>
<path d="M77.4395 28.4518C75.3612 28.4518 73.5723 28.0309 72.0727 27.1891C70.582 26.3385 69.4332 25.1371 68.6264 23.5849C67.8196 22.024 67.4163 20.1781 67.4163 18.0471C67.4163 15.9688 67.8196 14.1448 68.6264 12.5751C69.4332 11.0054 70.5688 9.7821 72.0333 8.90517C73.5065 8.02825 75.2341 7.58978 77.2159 7.58978C78.5488 7.58978 79.7897 7.80463 80.9385 8.23432C82.096 8.65525 83.1045 9.29102 83.9639 10.1416C84.832 10.9923 85.5072 12.0621 85.9895 13.3512C86.4719 14.6315 86.713 16.131 86.713 17.8498V19.3888H69.6524V15.9162H81.4383C81.4383 15.1094 81.2629 14.3947 80.9121 13.7721C80.5614 13.1495 80.0747 12.6628 79.4521 12.312C78.8382 11.9525 78.1235 11.7727 77.308 11.7727C76.4574 11.7727 75.7032 11.97 75.0455 12.3646C74.3966 12.7505 73.888 13.2723 73.5197 13.93C73.1514 14.5789 72.9628 15.3023 72.954 16.1003V19.402C72.954 20.4017 73.1382 21.2654 73.5065 21.9933C73.8836 22.7211 74.4141 23.2824 75.0981 23.677C75.7821 24.0716 76.5933 24.2689 77.5316 24.2689C78.1542 24.2689 78.7242 24.1812 79.2416 24.0058C79.759 23.8305 80.2018 23.5674 80.5701 23.2166C80.9385 22.8658 81.2191 22.4361 81.412 21.9275L86.5946 22.2695C86.3315 23.5148 85.7922 24.6021 84.9767 25.5317C84.1699 26.4525 83.1264 27.1715 81.8461 27.6889C80.5745 28.1975 79.1057 28.4518 77.4395 28.4518Z" fill="black"/>
<path d="M66.2801 7.85293V12.0622H54.1128V7.85293H66.2801ZM56.8751 3.0123H62.4787V21.8487C62.4787 22.3661 62.5576 22.7694 62.7154 23.0588C62.8733 23.3394 63.0925 23.5367 63.3731 23.6507C63.6625 23.7647 63.9957 23.8217 64.3728 23.8217C64.6359 23.8217 64.899 23.7998 65.1621 23.756C65.4251 23.7034 65.6268 23.6639 65.7671 23.6376L66.6485 27.8074C66.3678 27.8951 65.9732 27.9959 65.4646 28.1099C64.956 28.2327 64.3378 28.3072 63.6099 28.3335C62.2594 28.3861 61.0756 28.2064 60.0584 27.7942C59.0499 27.3821 58.265 26.7419 57.7038 25.8738C57.1426 25.0056 56.8663 23.9094 56.8751 22.5853V3.0123Z" fill="black"/>
<path d="M53.3649 7.85293V12.0622H41.1975V7.85293H53.3649ZM43.9598 3.0123H49.5634V21.8487C49.5634 22.3661 49.6423 22.7694 49.8002 23.0588C49.958 23.3394 50.1772 23.5367 50.4578 23.6507C50.7472 23.7647 51.0805 23.8217 51.4575 23.8217C51.7206 23.8217 51.9837 23.7998 52.2468 23.756C52.5099 23.7034 52.7115 23.6639 52.8519 23.6376L53.7332 27.8074C53.4525 27.8951 53.0579 27.9959 52.5493 28.1099C52.0407 28.2327 51.4225 28.3072 50.6946 28.3335C49.3441 28.3861 48.1603 28.2064 47.1431 27.7942C46.1346 27.3821 45.3498 26.7419 44.7885 25.8738C44.2273 25.0056 43.9511 23.9094 43.9598 22.5853V3.0123Z" fill="black"/>
<path d="M31.1695 28.4518C29.0912 28.4518 27.3023 28.0309 25.8027 27.1891C24.3119 26.3385 23.1632 25.1371 22.3564 23.5849C21.5496 22.024 21.1462 20.1781 21.1462 18.0471C21.1462 15.9688 21.5496 14.1448 22.3564 12.5751C23.1632 11.0054 24.2988 9.7821 25.7633 8.90517C27.2365 8.02825 28.964 7.58978 30.9459 7.58978C32.2788 7.58978 33.5197 7.80463 34.6684 8.23432C35.826 8.65525 36.8344 9.29102 37.6938 10.1416C38.562 10.9923 39.2372 12.0621 39.7195 13.3512C40.2018 14.6315 40.443 16.131 40.443 17.8498V19.3888H23.3824V15.9162H35.1683C35.1683 15.1094 34.9929 14.3947 34.6421 13.7721C34.2914 13.1495 33.8047 12.6628 33.182 12.312C32.5682 11.9525 31.8535 11.7727 31.038 11.7727C30.1873 11.7727 29.4332 11.97 28.7755 12.3646C28.1266 12.7505 27.618 13.2723 27.2496 13.93C26.8813 14.5789 26.6928 15.3023 26.684 16.1003V19.402C26.684 20.4017 26.8682 21.2654 27.2365 21.9933C27.6136 22.7211 28.1441 23.2824 28.8281 23.677C29.5121 24.0716 30.3233 24.2689 31.2616 24.2689C31.8842 24.2689 32.4542 24.1812 32.9716 24.0058C33.489 23.8305 33.9318 23.5674 34.3001 23.2166C34.6684 22.8658 34.9491 22.4361 35.142 21.9275L40.3246 22.2695C40.0615 23.5148 39.5222 24.6021 38.7067 25.5317C37.8999 26.4525 36.8564 27.1715 35.5761 27.6889C34.3045 28.1975 32.8357 28.4518 31.1695 28.4518Z" fill="black"/>
<path d="M0 28.0572V1.11804H5.60356V11.2465H5.77456C6.0201 10.7028 6.37525 10.1504 6.84002 9.58915C7.31356 9.01914 7.92741 8.5456 8.68157 8.16853C9.44449 7.78268 10.3916 7.58976 11.5228 7.58976C12.996 7.58976 14.3553 7.9756 15.6005 8.7473C16.8457 9.51022 17.8411 10.6634 18.5864 12.2068C19.3318 13.7414 19.7045 15.6662 19.7045 17.9813C19.7045 20.235 19.3406 22.138 18.6128 23.6901C17.8937 25.2335 16.9115 26.4042 15.6663 27.2022C14.4298 27.9914 13.0443 28.3861 11.5097 28.3861C10.4223 28.3861 9.49711 28.2063 8.73418 27.8467C7.98002 27.4872 7.36179 27.0356 6.87948 26.4919C6.39717 25.9394 6.02886 25.3826 5.77456 24.8213H5.52463V28.0572H0ZM5.48517 17.955C5.48517 19.1564 5.65179 20.2043 5.98502 21.0988C6.31825 21.9933 6.80056 22.6904 7.43195 23.1903C8.06333 23.6813 8.83064 23.9269 9.73388 23.9269C10.6459 23.9269 11.4176 23.677 12.049 23.1771C12.6803 22.6685 13.1583 21.967 13.4827 21.0725C13.816 20.1693 13.9826 19.1301 13.9826 17.955C13.9826 16.7887 13.8203 15.7627 13.4959 14.877C13.1714 13.9913 12.6935 13.2985 12.0621 12.7987C11.4307 12.2988 10.6546 12.0489 9.73388 12.0489C8.82187 12.0489 8.05018 12.2901 7.41879 12.7724C6.79617 13.2547 6.31825 13.9387 5.98502 14.8244C5.65179 15.7101 5.48517 16.7536 5.48517 17.955Z" fill="black"/>
</svg>
