<svg width="32" height="33" viewBox="0 0 32 33" fill="none" xmlns="http://www.w3.org/2000/svg">
<path d="M4 14.9567C4 9.92871 4 7.41404 5.56267 5.85271C7.12533 4.29137 9.63867 4.29004 14.6667 4.29004H17.3333C22.3613 4.29004 24.876 4.29004 26.4373 5.85271C27.9987 7.41537 28 9.92871 28 14.9567V17.6234C28 22.6514 28 25.166 26.4373 26.7274C24.8747 28.2887 22.3613 28.29 17.3333 28.29H14.6667C9.63867 28.29 7.124 28.29 5.56267 26.7274C4.00133 25.1647 4 22.6514 4 17.6234V14.9567Z" fill="#293BFF" stroke="#293BFF" stroke-width="1.66667"/>
<path d="M22 12.29C23.1046 12.29 24 11.3946 24 10.29C24 9.18547 23.1046 8.29004 22 8.29004C20.8954 8.29004 20 9.18547 20 10.29C20 11.3946 20.8954 12.29 22 12.29Z" fill="white"/>
<path d="M16 20.29C18.2091 20.29 20 18.4992 20 16.29C20 14.0809 18.2091 12.29 16 12.29C13.7909 12.29 12 14.0809 12 16.29C12 18.4992 13.7909 20.29 16 20.29Z" stroke="white" stroke-width="1.66667"/>
</svg>
