<svg width="32" height="33" viewBox="0 0 32 33" fill="none" xmlns="http://www.w3.org/2000/svg">
<path fill-rule="evenodd" clip-rule="evenodd" d="M16.0001 5.62305C17.1401 5.62305 18.3094 5.65238 19.4427 5.70038L20.7814 5.76438L22.0627 5.84038L23.2627 5.92171L24.3587 6.00705C25.5483 6.09757 26.6678 6.60496 27.52 7.43985C28.3722 8.27474 28.9025 9.38357 29.0174 10.571L29.0707 11.1377L29.1707 12.351C29.2641 13.6084 29.3334 14.979 29.3334 16.2897C29.3334 17.6004 29.2641 18.971 29.1707 20.2284L29.0707 21.4417L29.0174 22.0084C28.9024 23.1961 28.372 24.3051 27.5195 25.14C26.667 25.9749 25.5472 26.4822 24.3574 26.5724L23.2641 26.6564L22.0641 26.739L20.7814 26.815L19.4427 26.879C18.2959 26.9287 17.148 26.9545 16.0001 26.9564C14.8521 26.9545 13.7043 26.9287 12.5574 26.879L11.2187 26.815L9.93741 26.739L8.73741 26.6564L7.64141 26.5724C6.45183 26.4819 5.33235 25.9745 4.48014 25.1396C3.62793 24.3047 3.09767 23.1959 2.98275 22.0084L2.92941 21.4417L2.82941 20.2284C2.72786 18.9179 2.6736 17.6041 2.66675 16.2897C2.66675 14.979 2.73608 13.6084 2.82941 12.351L2.92941 11.1377L2.98275 10.571C3.09762 9.38378 3.6277 8.27512 4.47963 7.44025C5.33157 6.60539 6.45074 6.09787 7.64008 6.00705L8.73475 5.92171L9.93475 5.84038L11.2174 5.76438L12.5561 5.70038C13.7034 5.65068 14.8517 5.6249 16.0001 5.62305ZM13.3334 13.0564V19.523C13.3334 20.139 14.0001 20.523 14.5334 20.2164L20.1334 16.983C20.2553 16.9129 20.3565 16.8119 20.4269 16.6902C20.4972 16.5684 20.5343 16.4303 20.5343 16.2897C20.5343 16.1491 20.4972 16.011 20.4269 15.8893C20.3565 15.7675 20.2553 15.6665 20.1334 15.5964L14.5334 12.3644C14.4118 12.2941 14.2738 12.2572 14.1333 12.2572C13.9928 12.2572 13.8548 12.2942 13.7332 12.3645C13.6116 12.4348 13.5106 12.5358 13.4404 12.6575C13.3702 12.7792 13.3333 12.9172 13.3334 13.0577V13.0564Z" fill="#293BFF"/>
</svg>
